<svg width="1173" height="209" viewBox="0 0 1173 209" fill="none" xmlns="http://www.w3.org/2000/svg">
<path d="M195.96 202H134.04L127.128 176.08H68.952L62.04 202H0.12L64.344 0.399986H131.736L195.96 202ZM98.04 68.08L81.336 130H114.744L98.04 68.08ZM296.517 53.968C315.909 53.968 331.749 61.168 344.037 75.568C356.325 89.776 362.469 107.92 362.469 130C362.469 152.08 356.325 170.224 344.037 184.432C331.749 198.832 315.909 206.032 296.517 206.032C280.005 206.032 267.141 200.368 257.925 189.04V202H204.645V0.399986H257.925V70.96C267.141 59.632 280.005 53.968 296.517 53.968ZM264.837 149.296C269.637 154.48 275.877 157.072 283.557 157.072C291.237 157.072 297.381 154.48 301.989 149.296C306.789 144.112 309.189 137.68 309.189 130C309.189 122.32 306.789 115.888 301.989 110.704C297.381 105.52 291.237 102.928 283.557 102.928C275.877 102.928 269.637 105.52 264.837 110.704C260.229 115.888 257.925 122.32 257.925 130C257.925 137.68 260.229 144.112 264.837 149.296ZM450.437 206.032C428.933 206.032 410.597 198.736 395.429 184.144C380.453 169.552 372.965 151.504 372.965 130C372.965 108.496 380.453 90.448 395.429 75.856C410.213 61.264 428.549 53.968 450.437 53.968C472.325 53.968 490.661 61.264 505.445 75.856C520.421 90.64 527.909 108.688 527.909 130C527.909 151.504 520.421 169.552 505.445 184.144C490.661 198.736 472.325 206.032 450.437 206.032ZM432.869 148.432C437.477 153.04 443.333 155.344 450.437 155.344C457.541 155.344 463.301 153.04 467.717 148.432C472.325 143.44 474.629 137.296 474.629 130C474.629 122.512 472.325 116.464 467.717 111.856C463.493 107.056 457.733 104.656 450.437 104.656C443.333 104.656 437.477 107.056 432.869 111.856C428.453 116.656 426.245 122.704 426.245 130C426.245 137.296 428.453 143.44 432.869 148.432ZM633.956 132.016V58H687.236V202H633.956V187.888C625.124 199.984 612.26 206.032 595.364 206.032C579.236 206.032 566.468 200.464 557.06 189.328C547.844 178.192 543.236 162.16 543.236 141.232V58H596.516V135.472C596.516 148.336 602.468 154.768 614.372 154.768C620.708 154.768 625.508 152.752 628.772 148.72C632.228 144.688 633.956 139.12 633.956 132.016ZM805.373 58V108.688H775.133V139.792C775.133 144.592 776.285 148.144 778.589 150.448C780.893 152.752 784.253 154.096 788.669 154.48C793.277 154.672 798.845 154.576 805.373 154.192V202C775.421 206.224 754.013 203.728 741.148 194.512C728.285 185.104 721.853 167.824 721.853 142.672V108.688H701.693V58H721.853V33.52L775.133 17.68V58H805.373ZM972.581 132.016V58H1025.86V202H972.581V187.888C963.749 199.984 950.885 206.032 933.989 206.032C917.861 206.032 905.093 200.464 895.685 189.328C886.469 178.192 881.861 162.16 881.861 141.232V58H935.141V135.472C935.141 148.336 941.093 154.768 952.997 154.768C959.333 154.768 964.133 152.752 967.397 148.72C970.853 144.688 972.581 139.12 972.581 132.016ZM1100.51 100.336C1100.51 103.024 1102.91 105.04 1107.71 106.384C1112.7 107.728 1118.75 109.072 1125.85 110.416C1132.96 111.76 1140.06 113.776 1147.17 116.464C1154.27 118.96 1160.22 123.568 1165.02 130.288C1170.01 137.008 1172.51 145.648 1172.51 156.208C1172.51 165.232 1170.49 173.296 1166.46 180.4C1162.43 187.312 1156.96 192.496 1150.05 195.952C1136.8 202.672 1122.69 206.032 1107.71 206.032C1072.96 206.032 1050.49 194.608 1040.32 171.76L1086.69 151.024C1090.53 160.816 1097.34 165.712 1107.13 165.712C1113.66 165.712 1116.93 163.6 1116.93 159.376C1116.93 157.264 1115.01 155.44 1111.17 153.904C1107.33 152.368 1101.09 150.64 1092.45 148.72C1062.3 142 1047.33 126.928 1047.52 103.504C1047.52 87.76 1053.47 75.568 1065.37 66.928C1077.47 58.288 1091.39 53.968 1107.13 53.968C1138.81 53.968 1159.65 66.16 1169.63 90.544L1125.57 106.384C1122.11 98.32 1116.73 94.288 1109.44 94.288C1103.49 94.288 1100.51 96.304 1100.51 100.336Z" fill="#353F63" fill-opacity="0.05"/>
</svg>
