<?xml version="1.0" encoding="utf-8"?>
<!-- Generator: Adobe Illustrator 25.2.3, SVG Export Plug-In . SVG Version: 6.00 Build 0)  -->
<svg version="1.1" id="Слой_1" xmlns="http://www.w3.org/2000/svg" xmlns:xlink="http://www.w3.org/1999/xlink" x="0px" y="0px"
	 viewBox="0 0 29 59" style="enable-background:new 0 0 29 59;" xml:space="preserve">
<style type="text/css">
	.st0{fill:#353F63;}
</style>
<path class="st0" d="M25.8,0c0.3,0,0.6,0.1,0.9,0.2c0.3,0.1,0.6,0.3,0.8,0.5c0.2,0.2,0.4,0.5,0.5,0.8c0.1,0.3,0.2,0.6,0.2,0.9
	s-0.1,0.6-0.2,0.9S27.8,4,27.5,4.2L7.5,24.3c-1.4,1.4-2.2,3.3-2.2,5.2s0.8,3.8,2.2,5.2l20.1,20.1c0.5,0.5,0.7,1.1,0.7,1.7
	c0,0.7-0.3,1.3-0.7,1.7c-0.5,0.5-1.1,0.7-1.7,0.7c-0.7,0-1.3-0.3-1.7-0.7L4,38.2c-1.1-1.1-2.1-2.5-2.7-4c-0.6-1.5-0.9-3.1-0.9-4.7
	s0.3-3.2,0.9-4.7c0.6-1.5,1.5-2.8,2.7-4L24,0.7c0.2-0.2,0.5-0.4,0.8-0.5C25.1,0.1,25.5,0,25.8,0z"/>
</svg>
