<svg width="29" height="59" viewBox="0 0 29 59" fill="none" xmlns="http://www.w3.org/2000/svg">
<path d="M25.7914 -0.000290133C26.1149 -0.00215931 26.4356 0.0598486 26.7352 0.182186C27.0347 0.304527 27.3071 0.484787 27.5368 0.712627C27.7672 0.941162 27.9501 1.21305 28.0749 1.51263C28.1997 1.81219 28.264 2.13351 28.264 2.45804C28.264 2.78257 28.1997 3.10389 28.0749 3.40346C27.9501 3.70303 27.7672 3.97492 27.5368 4.20346L7.45222 24.288C6.07113 25.6709 5.29538 27.5453 5.29538 29.4997C5.29538 31.4541 6.07113 33.3286 7.45222 34.7114L27.5368 54.796C27.9997 55.2589 28.2598 55.8867 28.2598 56.5414C28.2598 57.196 27.9997 57.8239 27.5368 58.2868C27.0739 58.7497 26.446 59.0098 25.7914 59.0098C25.1367 59.0098 24.5089 58.7497 24.046 58.2868L3.96139 38.2022C2.81671 37.0604 1.90853 35.704 1.28887 34.2107C0.669217 32.7174 0.350251 31.1165 0.350251 29.4997C0.350251 27.8829 0.669217 26.282 1.28887 24.7887C1.90853 23.2954 2.81671 21.939 3.96139 20.7972L24.046 0.712627C24.2757 0.484787 24.5481 0.304527 24.8476 0.182186C25.1471 0.0598485 25.4679 -0.00215936 25.7914 -0.000290133Z" fill="#080809"/>
</svg>
