<?xml version="1.0" encoding="utf-8"?>
<!-- Generator: Adobe Illustrator 25.2.3, SVG Export Plug-In . SVG Version: 6.00 Build 0)  -->
<svg version="1.1" id="Слой_1" xmlns="http://www.w3.org/2000/svg" xmlns:xlink="http://www.w3.org/1999/xlink" x="0px" y="0px"
	 viewBox="0 0 29 59" style="enable-background:new 0 0 29 59;" xml:space="preserve">
<style type="text/css">
	.st0{fill:#353F63;}
</style>
<path class="st0" d="M3.2,59c-0.3,0-0.6-0.1-0.9-0.2c-0.3-0.1-0.6-0.3-0.8-0.5c-0.2-0.2-0.4-0.5-0.5-0.8c-0.1-0.3-0.2-0.6-0.2-0.9
	c0-0.3,0.1-0.6,0.2-0.9C1,55.3,1.2,55,1.5,54.8l20.1-20.1c1.4-1.4,2.2-3.3,2.2-5.2s-0.8-3.8-2.2-5.2L1.5,4.2C1,3.7,0.7,3.1,0.7,2.5
	c0-0.7,0.3-1.3,0.7-1.7C1.9,0.3,2.6,0,3.2,0C3.9,0,4.5,0.3,5,0.7L25,20.8c1.1,1.1,2.1,2.5,2.7,4c0.6,1.5,0.9,3.1,0.9,4.7
	s-0.3,3.2-0.9,4.7c-0.6,1.5-1.5,2.8-2.7,4L5,58.3c-0.2,0.2-0.5,0.4-0.8,0.5C3.9,58.9,3.5,59,3.2,59z"/>
</svg>
