<svg width="41" height="18" viewBox="0 0 41 18" fill="none" xmlns="http://www.w3.org/2000/svg">
<path d="M20.5003 17.0396C19.3778 17.0413 18.266 16.8541 17.2283 16.4888C16.1906 16.1234 15.2475 15.5871 14.4528 14.9104L0.495693 2.99581C0.174007 2.7212 -0.00671387 2.34875 -0.00671387 1.96039C-0.00671387 1.57204 0.174007 1.19959 0.495693 0.924977C0.817378 0.650368 1.25368 0.496094 1.70861 0.496094C2.16354 0.496094 2.59984 0.650368 2.92153 0.924977L16.8786 12.8396C17.8395 13.6589 19.1421 14.119 20.5003 14.119C21.8584 14.119 23.161 13.6589 24.1219 12.8396L38.079 0.924977C38.4007 0.650368 38.837 0.496094 39.2919 0.496094C39.7469 0.496094 40.1832 0.650368 40.5049 0.924977C40.8265 1.19959 41.0073 1.57204 41.0073 1.96039C41.0073 2.34875 40.8265 2.7212 40.5049 2.99581L26.5478 14.9104C25.7531 15.5871 24.8099 16.1234 23.7723 16.4888C22.7346 16.8541 21.6227 17.0413 20.5003 17.0396Z" fill="#F8F8F8" fill-opacity="0.8"/>
</svg>
