<svg width="719" height="111" viewBox="0 0 719 111" fill="none" xmlns="http://www.w3.org/2000/svg">
<path d="M53.304 109.304C38.04 109.304 25.464 104.264 15.576 94.184C5.592 84.008 0.6 71.48 0.6 56.6C0.6 41.72 5.592 29.192 15.576 19.016C25.464 8.936 38.04 3.896 53.304 3.896C62.52 3.896 71.064 6.104 78.936 10.52C86.904 14.936 93.096 20.888 97.512 28.376L72.456 42.776C70.824 39.512 68.28 36.92 64.824 35C61.368 33.08 57.528 32.12 53.304 32.12C46.296 32.12 40.536 34.424 36.024 39.032C31.608 43.544 29.4 49.4 29.4 56.6C29.4 63.8 31.608 69.656 36.024 74.168C40.536 78.776 46.296 81.08 53.304 81.08C57.624 81.08 61.464 80.12 64.824 78.2C68.28 76.28 70.824 73.64 72.456 70.28L97.512 84.68C93.096 92.264 86.904 98.264 78.936 102.68C71.064 107.096 62.52 109.304 53.304 109.304ZM140.984 109.016C130.232 109.016 121.064 105.368 113.48 98.072C105.992 90.776 102.248 81.752 102.248 71C102.248 60.248 105.992 51.224 113.48 43.928C120.872 36.632 130.04 32.984 140.984 32.984C151.928 32.984 161.096 36.632 168.488 43.928C175.976 51.32 179.72 60.344 179.72 71C179.72 81.752 175.976 90.776 168.488 98.072C161.096 105.368 151.928 109.016 140.984 109.016ZM132.2 80.216C134.504 82.52 137.432 83.672 140.984 83.672C144.536 83.672 147.416 82.52 149.624 80.216C151.928 77.72 153.08 74.648 153.08 71C153.08 67.256 151.928 64.232 149.624 61.928C147.512 59.528 144.632 58.328 140.984 58.328C137.432 58.328 134.504 59.528 132.2 61.928C129.992 64.328 128.888 67.352 128.888 71C128.888 74.648 129.992 77.72 132.2 80.216ZM234.04 32.984C242.104 32.984 248.44 35.768 253.048 41.336C257.752 46.904 260.104 54.92 260.104 65.384V107H233.464V68.264C233.464 61.832 230.488 58.616 224.536 58.616C221.368 58.616 218.92 59.624 217.192 61.64C215.56 63.656 214.744 66.44 214.744 69.992V107H188.104V35H214.744V42.056C219.256 36.008 225.688 32.984 234.04 32.984ZM319.755 41.48V6.19999H346.395V107H319.755V100.52C315.147 106.184 308.715 109.016 300.459 109.016C290.763 109.016 282.843 105.416 276.699 98.216C270.555 91.112 267.483 82.04 267.483 71C267.483 59.96 270.555 50.888 276.699 43.784C282.843 36.584 290.763 32.984 300.459 32.984C308.715 32.984 315.147 35.816 319.755 41.48ZM297.579 80.648C300.075 83.24 303.195 84.536 306.939 84.536C310.779 84.536 313.851 83.24 316.155 80.648C318.555 78.056 319.755 74.84 319.755 71C319.755 67.16 318.555 63.944 316.155 61.352C313.851 58.76 310.779 57.464 306.939 57.464C303.195 57.464 300.075 58.76 297.579 61.352C295.275 63.944 294.123 67.16 294.123 71C294.123 74.84 295.275 78.056 297.579 80.648ZM381.595 25.208C378.715 28.088 375.307 29.528 371.371 29.528C367.435 29.528 363.931 28.088 360.859 25.208C357.979 22.136 356.539 18.68 356.539 14.84C356.539 10.904 357.979 7.49599 360.859 4.616C363.835 1.63999 367.339 0.151994 371.371 0.151994C375.307 0.151994 378.715 1.63999 381.595 4.616C384.571 7.49599 386.059 10.904 386.059 14.84C386.059 18.776 384.571 22.232 381.595 25.208ZM384.619 107H357.979V35H384.619V107ZM443.608 35V60.344H428.488V75.896C428.488 78.296 429.064 80.072 430.216 81.224C431.368 82.376 433.048 83.048 435.256 83.24C437.56 83.336 440.344 83.288 443.608 83.096V107C428.632 109.112 417.928 107.864 411.496 103.256C405.064 98.552 401.848 89.912 401.848 77.336V60.344H391.768V35H401.848V22.76L428.488 14.84V35H443.608ZM476.657 25.208C473.777 28.088 470.369 29.528 466.433 29.528C462.497 29.528 458.993 28.088 455.921 25.208C453.041 22.136 451.601 18.68 451.601 14.84C451.601 10.904 453.041 7.49599 455.921 4.616C458.897 1.63999 462.401 0.151994 466.433 0.151994C470.369 0.151994 473.777 1.63999 476.657 4.616C479.633 7.49599 481.121 10.904 481.121 14.84C481.121 18.776 479.633 22.232 476.657 25.208ZM479.681 107H453.041V35H479.681V107ZM526.437 109.016C515.685 109.016 506.517 105.368 498.933 98.072C491.445 90.776 487.701 81.752 487.701 71C487.701 60.248 491.445 51.224 498.933 43.928C506.325 36.632 515.493 32.984 526.437 32.984C537.381 32.984 546.549 36.632 553.941 43.928C561.429 51.32 565.173 60.344 565.173 71C565.173 81.752 561.429 90.776 553.941 98.072C546.549 105.368 537.381 109.016 526.437 109.016ZM517.653 80.216C519.957 82.52 522.885 83.672 526.437 83.672C529.989 83.672 532.869 82.52 535.077 80.216C537.381 77.72 538.533 74.648 538.533 71C538.533 67.256 537.381 64.232 535.077 61.928C532.965 59.528 530.085 58.328 526.437 58.328C522.885 58.328 519.957 59.528 517.653 61.928C515.445 64.328 514.341 67.352 514.341 71C514.341 74.648 515.445 77.72 517.653 80.216ZM619.493 32.984C627.557 32.984 633.893 35.768 638.501 41.336C643.205 46.904 645.557 54.92 645.557 65.384V107H618.917V68.264C618.917 61.832 615.941 58.616 609.989 58.616C606.821 58.616 604.373 59.624 602.645 61.64C601.013 63.656 600.197 66.44 600.197 69.992V107H573.557V35H600.197V42.056C604.709 36.008 611.141 32.984 619.493 32.984ZM682.161 56.168C682.161 57.512 683.361 58.52 685.761 59.192C688.257 59.864 691.281 60.536 694.833 61.208C698.385 61.88 701.937 62.888 705.489 64.232C709.041 65.48 712.017 67.784 714.417 71.144C716.913 74.504 718.161 78.824 718.161 84.104C718.161 88.616 717.153 92.648 715.137 96.2C713.121 99.656 710.385 102.248 706.929 103.976C700.305 107.336 693.249 109.016 685.761 109.016C668.385 109.016 657.153 103.304 652.065 91.88L675.249 81.512C677.169 86.408 680.577 88.856 685.473 88.856C688.737 88.856 690.369 87.8 690.369 85.688C690.369 84.632 689.409 83.72 687.489 82.952C685.569 82.184 682.449 81.32 678.129 80.36C663.057 77 655.569 69.464 655.665 57.752C655.665 49.88 658.641 43.784 664.593 39.464C670.641 35.144 677.601 32.984 685.473 32.984C701.313 32.984 711.729 39.08 716.721 51.272L694.689 59.192C692.961 55.16 690.273 53.144 686.625 53.144C683.649 53.144 682.161 54.152 682.161 56.168Z" fill="#353F63" fill-opacity="0.05"/>
</svg>
