<svg width="948" height="274" viewBox="0 0 948 274" fill="none" xmlns="http://www.w3.org/2000/svg">
<path d="M106.96 83.824V12.4H164.56V214H106.96V139.696H58V214H0.4V12.4H58V83.824H106.96ZM237.69 50.416C231.93 56.176 225.114 59.056 217.242 59.056C209.37 59.056 202.362 56.176 196.218 50.416C190.458 44.272 187.578 37.36 187.578 29.68C187.578 21.808 190.458 14.992 196.218 9.23199C202.17 3.27999 209.178 0.303988 217.242 0.303988C225.114 0.303988 231.93 3.27999 237.69 9.23199C243.642 14.992 246.618 21.808 246.618 29.68C246.618 37.552 243.642 44.464 237.69 50.416ZM243.738 214H190.458V70H243.738V214ZM318.228 112.336C318.228 115.024 320.628 117.04 325.428 118.384C330.42 119.728 336.468 121.072 343.572 122.416C350.676 123.76 357.78 125.776 364.884 128.464C371.988 130.96 377.94 135.568 382.74 142.288C387.732 149.008 390.228 157.648 390.228 168.208C390.228 177.232 388.212 185.296 384.18 192.4C380.148 199.312 374.676 204.496 367.764 207.952C354.516 214.672 340.404 218.032 325.428 218.032C290.676 218.032 268.212 206.608 258.036 183.76L304.404 163.024C308.244 172.816 315.06 177.712 324.852 177.712C331.38 177.712 334.644 175.6 334.644 171.376C334.644 169.264 332.724 167.44 328.884 165.904C325.044 164.368 318.804 162.64 310.164 160.72C280.02 154 265.044 138.928 265.236 115.504C265.236 99.76 271.188 87.568 283.092 78.928C295.188 70.288 309.108 65.968 324.852 65.968C356.532 65.968 377.364 78.16 387.348 102.544L343.284 118.384C339.828 110.32 334.452 106.288 327.156 106.288C321.204 106.288 318.228 108.304 318.228 112.336ZM496.998 70V120.688H466.758V151.792C466.758 156.592 467.91 160.144 470.214 162.448C472.518 164.752 475.878 166.096 480.294 166.48C484.902 166.672 490.47 166.576 496.998 166.192V214C467.046 218.224 445.638 215.728 432.773 206.512C419.91 197.104 413.478 179.824 413.478 154.672V120.688H393.318V70H413.478V45.52L466.758 29.68V70H496.998ZM585.594 218.032C564.09 218.032 545.754 210.736 530.586 196.144C515.61 181.552 508.122 163.504 508.122 142C508.122 120.496 515.61 102.448 530.586 87.856C545.37 73.264 563.706 65.968 585.594 65.968C607.482 65.968 625.818 73.264 640.602 87.856C655.578 102.64 663.066 120.688 663.066 142C663.066 163.504 655.578 181.552 640.602 196.144C625.818 210.736 607.482 218.032 585.594 218.032ZM568.026 160.432C572.634 165.04 578.49 167.344 585.594 167.344C592.698 167.344 598.458 165.04 602.874 160.432C607.482 155.44 609.786 149.296 609.786 142C609.786 134.512 607.482 128.464 602.874 123.856C598.65 119.056 592.89 116.656 585.594 116.656C578.49 116.656 572.634 119.056 568.026 123.856C563.61 128.656 561.402 134.704 561.402 142C561.402 149.296 563.61 155.44 568.026 160.432ZM733.113 70V97.936C735.801 88.336 740.985 80.848 748.665 75.472C756.537 69.904 765.753 67.12 776.313 67.12V124.72C764.793 123.184 754.713 125.488 746.073 131.632C737.433 137.776 733.113 147.376 733.113 160.432V214H679.833V70H733.113ZM869.456 146.896L887.024 70H947.504L898.544 213.712C891.44 234.64 880.4 249.712 865.424 258.928C850.448 268.336 830.672 272.56 806.096 271.6V221.2C816.08 221.2 823.568 220.432 828.56 218.896C833.744 217.552 837.872 214.96 840.944 211.12L783.344 70H843.824L869.456 146.896Z" fill="#353F63" fill-opacity="0.05"/>
</svg>
