<svg width="846" height="270" viewBox="0 0 846 270" fill="none" xmlns="http://www.w3.org/2000/svg">
<path d="M56.632 49.16L88.024 101H56.056L31 57.8V101H2.2V0.199993H31V40.52L54.616 0.199993H86.584L56.632 49.16ZM157.406 74.072H109.598C111.902 78.872 116.798 81.272 124.286 81.272C128.606 81.272 132.686 79.736 136.526 76.664L153.95 91.352C146.75 99.128 136.574 103.016 123.422 103.016C111.23 103.016 101.342 99.464 93.7581 92.36C86.3661 85.16 82.6701 76.136 82.6701 65.288C82.6701 54.344 86.2701 45.224 93.4701 37.928C100.766 30.632 109.934 26.984 120.974 26.984C131.918 26.984 140.894 30.584 147.902 37.784C155.006 44.888 158.558 53.864 158.558 64.712C158.558 67.688 158.174 70.808 157.406 74.072ZM109.166 56.936H133.358C131.822 51.176 127.934 48.296 121.694 48.296C115.454 48.296 111.278 51.176 109.166 56.936ZM200.9 67.448L209.684 29H239.924L215.444 100.856C211.892 111.32 206.372 118.856 198.884 123.464C191.396 128.168 181.508 130.28 169.22 129.8V104.6C174.212 104.6 177.956 104.216 180.452 103.448C183.044 102.776 185.108 101.48 186.644 99.56L157.844 29H188.084L200.9 67.448ZM46.696 166.984C56.392 166.984 64.312 170.584 70.456 177.784C76.6 184.888 79.672 193.96 79.672 205C79.672 216.04 76.6 225.112 70.456 232.216C64.312 239.416 56.392 243.016 46.696 243.016C38.44 243.016 32.008 240.184 27.4 234.52V269.8H0.76V169H27.4V175.48C32.008 169.816 38.44 166.984 46.696 166.984ZM30.856 214.648C33.256 217.24 36.376 218.536 40.216 218.536C44.056 218.536 47.128 217.24 49.432 214.648C51.832 212.056 53.032 208.84 53.032 205C53.032 201.16 51.832 197.944 49.432 195.352C47.128 192.76 44.056 191.464 40.216 191.464C36.376 191.464 33.256 192.76 30.856 195.352C28.552 197.944 27.4 201.16 27.4 205C27.4 208.84 28.552 212.056 30.856 214.648ZM137.192 175.48V169H163.832V241H137.192V234.52C132.584 240.184 126.152 243.016 117.896 243.016C108.2 243.016 100.28 239.416 94.1361 232.216C87.9921 225.112 84.9201 216.04 84.9201 205C84.9201 193.96 87.9921 184.888 94.1361 177.784C100.28 170.584 108.2 166.984 117.896 166.984C126.152 166.984 132.584 169.816 137.192 175.48ZM115.016 214.648C117.512 217.24 120.632 218.536 124.376 218.536C128.216 218.536 131.288 217.24 133.592 214.648C135.992 212.056 137.192 208.84 137.192 205C137.192 201.16 135.992 197.944 133.592 195.352C131.288 192.76 128.216 191.464 124.376 191.464C120.632 191.464 117.512 192.76 115.016 195.352C112.712 197.944 111.56 201.16 111.56 205C111.56 208.84 112.712 212.056 115.016 214.648ZM202.056 169V182.968C203.4 178.168 205.992 174.424 209.832 171.736C213.768 168.952 218.376 167.56 223.656 167.56V196.36C217.896 195.592 212.856 196.744 208.536 199.816C204.216 202.888 202.056 207.688 202.056 214.216V241H175.416V169H202.056ZM280.452 169V194.344H265.332V209.896C265.332 212.296 265.908 214.072 267.06 215.224C268.212 216.376 269.892 217.048 272.1 217.24C274.404 217.336 277.188 217.288 280.452 217.096V241C265.476 243.112 254.772 241.864 248.34 237.256C241.908 232.552 238.692 223.912 238.692 211.336V194.344H228.612V169H238.692V156.76L265.332 148.84V169H280.452ZM336.524 166.984C344.588 166.984 350.924 169.768 355.532 175.336C360.236 180.904 362.588 188.92 362.588 199.384V241H335.948V202.264C335.948 195.832 332.972 192.616 327.02 192.616C323.852 192.616 321.404 193.624 319.676 195.64C318.044 197.656 317.228 200.44 317.228 203.992V241H290.588V169H317.228V176.056C321.74 170.008 328.172 166.984 336.524 166.984ZM444.703 214.072H396.895C399.199 218.872 404.095 221.272 411.583 221.272C415.903 221.272 419.983 219.736 423.823 216.664L441.247 231.352C434.047 239.128 423.871 243.016 410.719 243.016C398.527 243.016 388.639 239.464 381.055 232.36C373.663 225.16 369.967 216.136 369.967 205.288C369.967 194.344 373.567 185.224 380.767 177.928C388.063 170.632 397.231 166.984 408.271 166.984C419.215 166.984 428.191 170.584 435.199 177.784C442.303 184.888 445.855 193.864 445.855 204.712C445.855 207.688 445.471 210.808 444.703 214.072ZM396.463 196.936H420.655C419.119 191.176 415.231 188.296 408.991 188.296C402.751 188.296 398.575 191.176 396.463 196.936ZM480.353 169V182.968C481.697 178.168 484.289 174.424 488.129 171.736C492.065 168.952 496.673 167.56 501.953 167.56V196.36C496.193 195.592 491.153 196.744 486.833 199.816C482.513 202.888 480.353 207.688 480.353 214.216V241H453.713V169H480.353ZM533.489 190.168C533.489 191.512 534.689 192.52 537.089 193.192C539.585 193.864 542.609 194.536 546.161 195.208C549.713 195.88 553.265 196.888 556.817 198.232C560.369 199.48 563.345 201.784 565.745 205.144C568.241 208.504 569.489 212.824 569.489 218.104C569.489 222.616 568.481 226.648 566.465 230.2C564.449 233.656 561.713 236.248 558.257 237.976C551.633 241.336 544.577 243.016 537.089 243.016C519.713 243.016 508.481 237.304 503.393 225.88L526.577 215.512C528.497 220.408 531.905 222.856 536.801 222.856C540.065 222.856 541.697 221.8 541.697 219.688C541.697 218.632 540.737 217.72 538.817 216.952C536.897 216.184 533.777 215.32 529.457 214.36C514.385 211 506.897 203.464 506.993 191.752C506.993 183.88 509.969 177.784 515.921 173.464C521.969 169.144 528.929 166.984 536.801 166.984C552.641 166.984 563.057 173.08 568.049 185.272L546.017 193.192C544.289 189.16 541.601 187.144 537.953 187.144C534.977 187.144 533.489 188.152 533.489 190.168ZM623.399 166.984C631.463 166.984 637.799 169.768 642.407 175.336C647.111 180.904 649.463 188.92 649.463 199.384V241H622.823V202.264C622.823 195.832 619.847 192.616 613.895 192.616C610.727 192.616 608.279 193.624 606.551 195.64C604.919 197.656 604.103 200.44 604.103 203.992V241H577.463V140.2H604.103V176.056C608.615 170.008 615.047 166.984 623.399 166.984ZM683.907 159.208C681.027 162.088 677.619 163.528 673.683 163.528C669.747 163.528 666.243 162.088 663.171 159.208C660.291 156.136 658.851 152.68 658.851 148.84C658.851 144.904 660.291 141.496 663.171 138.616C666.147 135.64 669.651 134.152 673.683 134.152C677.619 134.152 681.027 135.64 683.907 138.616C686.883 141.496 688.371 144.904 688.371 148.84C688.371 152.776 686.883 156.232 683.907 159.208ZM686.931 241H660.291V169H686.931V241ZM744.337 166.984C754.033 166.984 761.953 170.584 768.097 177.784C774.241 184.888 777.313 193.96 777.313 205C777.313 216.04 774.241 225.112 768.097 232.216C761.953 239.416 754.033 243.016 744.337 243.016C736.081 243.016 729.649 240.184 725.041 234.52V269.8H698.401V169H725.041V175.48C729.649 169.816 736.081 166.984 744.337 166.984ZM728.497 214.648C730.897 217.24 734.017 218.536 737.857 218.536C741.697 218.536 744.769 217.24 747.073 214.648C749.473 212.056 750.673 208.84 750.673 205C750.673 201.16 749.473 197.944 747.073 195.352C744.769 192.76 741.697 191.464 737.857 191.464C734.017 191.464 730.897 192.76 728.497 195.352C726.193 197.944 725.041 201.16 725.041 205C725.041 208.84 726.193 212.056 728.497 214.648ZM809.395 190.168C809.395 191.512 810.595 192.52 812.995 193.192C815.491 193.864 818.515 194.536 822.067 195.208C825.619 195.88 829.171 196.888 832.723 198.232C836.275 199.48 839.251 201.784 841.651 205.144C844.147 208.504 845.395 212.824 845.395 218.104C845.395 222.616 844.387 226.648 842.371 230.2C840.355 233.656 837.619 236.248 834.163 237.976C827.539 241.336 820.483 243.016 812.995 243.016C795.619 243.016 784.387 237.304 779.299 225.88L802.483 215.512C804.403 220.408 807.811 222.856 812.707 222.856C815.971 222.856 817.603 221.8 817.603 219.688C817.603 218.632 816.643 217.72 814.723 216.952C812.803 216.184 809.683 215.32 805.363 214.36C790.291 211 782.803 203.464 782.899 191.752C782.899 183.88 785.875 177.784 791.827 173.464C797.875 169.144 804.835 166.984 812.707 166.984C828.547 166.984 838.963 173.08 843.955 185.272L821.923 193.192C820.195 189.16 817.507 187.144 813.859 187.144C810.883 187.144 809.395 188.152 809.395 190.168Z" fill="#353F63" fill-opacity="0.05"/>
</svg>
