<svg width="28" height="28" viewBox="0 0 28 28" fill="none" xmlns="http://www.w3.org/2000/svg">
<g clip-path="url(#clip0_0_124)">
<path d="M11.5246 14.6369C12.4996 15.5 13.0716 16 13.9996 16C14.9276 16 15.8184 15.2917 16.4759 14.6369L27.9996 3.5C27.9996 3 27.9996 2.16652 27.9996 1.16652C27.4996 1.16678 25.1989 1.16757 24.5002 1.16652H3.50024C2.80159 1.16757 0.805087 1.16642 -0.000366211 1.16651C-0.000366211 2.30586 -0.000366211 2.5 -0.000366211 3.5L11.5246 14.6369Z" fill="#F8F8F8"/>
<path d="M18.1253 16.2865C17.0303 17.3788 15.5467 17.9922 14 17.9922C12.4533 17.9922 10.9697 17.3788 9.87467 16.2865L0 6.4165V26.8332H28V6.4165L18.1253 16.2865Z" fill="#F8F8F8"/>
</g>
<defs>
<clipPath id="clip0_0_124">
<rect width="28" height="28" fill="white"/>
</clipPath>
</defs>
</svg>
