<svg width="28" height="28" viewBox="0 0 28 28" fill="none" xmlns="http://www.w3.org/2000/svg">
<g clip-path="url(#clip0_0_122)">
<path d="M16.3333 8.16688C16.3333 8.62837 16.1965 9.0795 15.9401 9.46321C15.6837 9.84693 15.3193 10.146 14.8929 10.3226C14.4666 10.4992 13.9974 10.5454 13.5448 10.4554C13.0922 10.3654 12.6764 10.1431 12.3501 9.8168C12.0237 9.49048 11.8015 9.07472 11.7115 8.62209C11.6215 8.16947 11.6677 7.70032 11.8443 7.27395C12.0209 6.84759 12.3199 6.48318 12.7037 6.22679C13.0874 5.9704 13.5385 5.83355 14 5.83355C14.6188 5.83355 15.2123 6.07938 15.6499 6.51697C16.0875 6.95455 16.3333 7.54804 16.3333 8.16688ZM19.775 13.9501L14 19.6002L8.23432 13.9582C7.09003 12.8175 6.30983 11.363 5.99243 9.77874C5.67504 8.19448 5.83471 6.55167 6.45126 5.05819C7.0678 3.56471 8.11351 2.28767 9.45605 1.38867C10.7986 0.489678 12.3776 0.00912188 13.9934 0.00781517C15.6091 0.00650847 17.1889 0.484509 18.5329 1.38133C19.8769 2.27816 20.9247 3.5535 21.5437 5.04598C22.1626 6.53847 22.3249 8.18101 22.0101 9.76578C21.6953 11.3506 20.9174 12.8063 19.775 13.9489V13.9501ZM18.6667 8.16688C18.6667 7.2439 18.393 6.34165 17.8802 5.57422C17.3674 4.80679 16.6386 4.20865 15.7858 3.85545C14.9331 3.50224 13.9948 3.40982 13.0896 3.58989C12.1843 3.76995 11.3528 4.21441 10.7002 4.86705C10.0475 5.5197 9.60305 6.35122 9.42299 7.25646C9.24292 8.16171 9.33534 9.10002 9.68855 9.95274C10.0418 10.8055 10.6399 11.5343 11.4073 12.0471C12.1748 12.5599 13.077 12.8336 14 12.8336C15.2377 12.8336 16.4246 12.3419 17.2998 11.4667C18.175 10.5915 18.6667 9.40456 18.6667 8.16688ZM25.5115 12.3821L23.8373 11.8221C23.3163 13.2415 22.4931 14.5309 21.4247 15.6009L14 22.8669L6.60332 15.6336C5.19923 14.2347 4.2203 12.4665 3.77999 10.5341C3.29902 10.4898 2.8141 10.5466 2.35641 10.7009C1.89871 10.8552 1.47836 11.1036 1.12237 11.43C0.766375 11.7565 0.482612 12.1538 0.289315 12.5964C0.0960189 13.039 -0.00253524 13.5172 -1.38497e-05 14.0002V25.3776L9.31349 28.0387L18.6702 25.7054L28.0035 27.9781V15.7304C28.003 14.9785 27.7604 14.2467 27.3116 13.6434C26.8627 13.0401 26.2316 12.5974 25.5115 12.3809V12.3821Z" fill="#F8F8F8"/>
</g>
<defs>
<clipPath id="clip0_0_122">
<rect width="28" height="28" fill="white"/>
</clipPath>
</defs>
</svg>
