<svg width="1285" height="276" viewBox="0 0 1285 276" fill="none" xmlns="http://www.w3.org/2000/svg">
<path d="M5.2 6.19999H45.52C55.888 6.19999 64.624 9.51199 71.728 16.136C78.736 22.568 82.24 31.304 82.24 42.344C82.24 53.288 78.736 62.072 71.728 68.696C64.624 75.224 55.888 78.488 45.52 78.488H34V107H5.2V6.19999ZM34 50.552H45.52C47.824 50.552 49.696 49.832 51.136 48.392C52.672 46.856 53.44 44.84 53.44 42.344C53.44 39.848 52.672 37.88 51.136 36.44C49.696 34.904 47.824 34.136 45.52 34.136H34V50.552ZM159.562 80.072H111.754C114.058 84.872 118.954 87.272 126.442 87.272C130.762 87.272 134.842 85.736 138.682 82.664L156.106 97.352C148.906 105.128 138.73 109.016 125.578 109.016C113.386 109.016 103.498 105.464 95.9144 98.36C88.5224 91.16 84.8264 82.136 84.8264 71.288C84.8264 60.344 88.4264 51.224 95.6264 43.928C102.922 36.632 112.09 32.984 123.13 32.984C134.074 32.984 143.05 36.584 150.058 43.784C157.162 50.888 160.714 59.864 160.714 70.712C160.714 73.688 160.33 76.808 159.562 80.072ZM111.322 62.936H135.514C133.978 57.176 130.09 54.296 123.85 54.296C117.61 54.296 113.434 57.176 111.322 62.936ZM195.213 35V48.968C196.557 44.168 199.149 40.424 202.989 37.736C206.925 34.952 211.533 33.56 216.813 33.56V62.36C211.053 61.592 206.013 62.744 201.693 65.816C197.373 68.888 195.213 73.688 195.213 80.216V107H168.573V35H195.213ZM248.349 56.168C248.349 57.512 249.549 58.52 251.949 59.192C254.445 59.864 257.469 60.536 261.021 61.208C264.573 61.88 268.125 62.888 271.677 64.232C275.229 65.48 278.205 67.784 280.605 71.144C283.101 74.504 284.349 78.824 284.349 84.104C284.349 88.616 283.341 92.648 281.325 96.2C279.309 99.656 276.573 102.248 273.117 103.976C266.493 107.336 259.437 109.016 251.949 109.016C234.573 109.016 223.341 103.304 218.253 91.88L241.437 81.512C243.357 86.408 246.765 88.856 251.661 88.856C254.925 88.856 256.557 87.8 256.557 85.688C256.557 84.632 255.597 83.72 253.677 82.952C251.757 82.184 248.637 81.32 244.317 80.36C229.245 77 221.757 69.464 221.853 57.752C221.853 49.88 224.829 43.784 230.781 39.464C236.829 35.144 243.789 32.984 251.661 32.984C267.501 32.984 277.917 39.08 282.909 51.272L260.877 59.192C259.149 55.16 256.461 53.144 252.812 53.144C249.837 53.144 248.349 54.152 248.349 56.168ZM327.891 109.016C317.139 109.016 307.971 105.368 300.387 98.072C292.899 90.776 289.155 81.752 289.155 71C289.155 60.248 292.899 51.224 300.387 43.928C307.779 36.632 316.947 32.984 327.891 32.984C338.835 32.984 348.003 36.632 355.395 43.928C362.883 51.32 366.627 60.344 366.627 71C366.627 81.752 362.883 90.776 355.395 98.072C348.003 105.368 338.835 109.016 327.891 109.016ZM319.107 80.216C321.411 82.52 324.339 83.672 327.891 83.672C331.443 83.672 334.323 82.52 336.531 80.216C338.835 77.72 339.987 74.648 339.987 71C339.987 67.256 338.835 64.232 336.531 61.928C334.419 59.528 331.539 58.328 327.891 58.328C324.339 58.328 321.411 59.528 319.107 61.928C316.899 64.328 315.795 67.352 315.795 71C315.795 74.648 316.899 77.72 319.107 80.216ZM420.946 32.984C429.01 32.984 435.346 35.768 439.954 41.336C444.658 46.904 447.01 54.92 447.01 65.384V107H420.37V68.264C420.37 61.832 417.394 58.616 411.442 58.616C408.274 58.616 405.826 59.624 404.098 61.64C402.466 63.656 401.65 66.44 401.65 69.992V107H375.01V35H401.65V42.056C406.162 36.008 412.594 32.984 420.946 32.984ZM503.774 32.984C511.838 32.984 518.174 35.768 522.782 41.336C527.486 46.904 529.838 54.92 529.838 65.384V107H503.198V68.264C503.198 61.832 500.222 58.616 494.27 58.616C491.102 58.616 488.654 59.624 486.926 61.64C485.294 63.656 484.478 66.44 484.478 69.992V107H457.838V35H484.478V42.056C488.99 36.008 495.422 32.984 503.774 32.984ZM611.953 80.072H564.145C566.449 84.872 571.345 87.272 578.833 87.272C583.153 87.272 587.233 85.736 591.073 82.664L608.497 97.352C601.297 105.128 591.121 109.016 577.969 109.016C565.777 109.016 555.889 105.464 548.305 98.36C540.913 91.16 537.217 82.136 537.217 71.288C537.217 60.344 540.817 51.224 548.017 43.928C555.313 36.632 564.481 32.984 575.521 32.984C586.465 32.984 595.441 36.584 602.449 43.784C609.553 50.888 613.105 59.864 613.105 70.712C613.105 73.688 612.721 76.808 611.953 80.072ZM563.713 62.936H587.905C586.369 57.176 582.481 54.296 576.241 54.296C570.001 54.296 565.825 57.176 563.713 62.936ZM647.603 107H620.963V1.88H647.603V107ZM733.837 32.984C743.533 32.984 751.453 36.584 757.597 43.784C763.741 50.888 766.813 59.96 766.813 71C766.813 82.04 763.741 91.112 757.597 98.216C751.453 105.416 743.533 109.016 733.837 109.016C725.581 109.016 719.149 106.184 714.541 100.52V135.8H687.901V35H714.541V41.48C719.149 35.816 725.581 32.984 733.837 32.984ZM717.997 80.648C720.397 83.24 723.517 84.536 727.357 84.536C731.197 84.536 734.269 83.24 736.573 80.648C738.973 78.056 740.173 74.84 740.173 71C740.173 67.16 738.973 63.944 736.573 61.352C734.269 58.76 731.197 57.464 727.357 57.464C723.517 57.464 720.397 58.76 717.997 61.352C715.693 63.944 714.541 67.16 714.541 71C714.541 74.84 715.693 78.056 717.997 80.648ZM810.797 109.016C800.045 109.016 790.877 105.368 783.293 98.072C775.805 90.776 772.061 81.752 772.061 71C772.061 60.248 775.805 51.224 783.293 43.928C790.685 36.632 799.853 32.984 810.797 32.984C821.741 32.984 830.909 36.632 838.301 43.928C845.789 51.32 849.533 60.344 849.533 71C849.533 81.752 845.789 90.776 838.301 98.072C830.909 105.368 821.741 109.016 810.797 109.016ZM802.013 80.216C804.317 82.52 807.245 83.672 810.797 83.672C814.349 83.672 817.229 82.52 819.437 80.216C821.741 77.72 822.893 74.648 822.893 71C822.893 67.256 821.741 64.232 819.437 61.928C817.325 59.528 814.445 58.328 810.797 58.328C807.245 58.328 804.317 59.528 802.013 61.928C799.805 64.328 798.701 67.352 798.701 71C798.701 74.648 799.805 77.72 802.013 80.216ZM904.03 35V60.344H888.91V75.896C888.91 78.296 889.486 80.072 890.638 81.224C891.79 82.376 893.47 83.048 895.678 83.24C897.982 83.336 900.766 83.288 904.03 83.096V107C889.054 109.112 878.35 107.864 871.918 103.256C865.486 98.552 862.27 89.912 862.27 77.336V60.344H852.19V35H862.27V22.76L888.91 14.84V35H904.03ZM984.328 80.072H936.52C938.824 84.872 943.72 87.272 951.208 87.272C955.528 87.272 959.608 85.736 963.448 82.664L980.872 97.352C973.672 105.128 963.496 109.016 950.344 109.016C938.152 109.016 928.264 105.464 920.68 98.36C913.288 91.16 909.592 82.136 909.592 71.288C909.592 60.344 913.192 51.224 920.392 43.928C927.688 36.632 936.856 32.984 947.896 32.984C958.84 32.984 967.816 36.584 974.824 43.784C981.928 50.888 985.48 59.864 985.48 70.712C985.48 73.688 985.096 76.808 984.328 80.072ZM936.088 62.936H960.28C958.744 57.176 954.856 54.296 948.616 54.296C942.376 54.296 938.2 57.176 936.088 62.936ZM1039.27 32.984C1047.34 32.984 1053.67 35.768 1058.28 41.336C1062.99 46.904 1065.34 54.92 1065.34 65.384V107H1038.7V68.264C1038.7 61.832 1035.72 58.616 1029.77 58.616C1026.6 58.616 1024.15 59.624 1022.43 61.64C1020.79 63.656 1019.98 66.44 1019.98 69.992V107H993.338V35H1019.98V42.056C1024.49 36.008 1030.92 32.984 1039.27 32.984ZM1123.69 35V60.344H1108.57V75.896C1108.57 78.296 1109.14 80.072 1110.29 81.224C1111.45 82.376 1113.13 83.048 1115.33 83.24C1117.64 83.336 1120.42 83.288 1123.69 83.096V107C1108.71 109.112 1098.01 107.864 1091.57 103.256C1085.14 98.552 1081.93 89.912 1081.93 77.336V60.344H1071.85V35H1081.93V22.76L1108.57 14.84V35H1123.69ZM1156.74 25.208C1153.86 28.088 1150.45 29.528 1146.51 29.528C1142.58 29.528 1139.07 28.088 1136 25.208C1133.12 22.136 1131.68 18.68 1131.68 14.84C1131.68 10.904 1133.12 7.49599 1136 4.616C1138.98 1.63999 1142.48 0.151994 1146.51 0.151994C1150.45 0.151994 1153.86 1.63999 1156.74 4.616C1159.71 7.49599 1161.2 10.904 1161.2 14.84C1161.2 18.776 1159.71 22.232 1156.74 25.208ZM1159.76 107H1133.12V35H1159.76V107ZM1220.05 41.48V35H1246.69V107H1220.05V100.52C1215.44 106.184 1209.01 109.016 1200.76 109.016C1191.06 109.016 1183.14 105.416 1177 98.216C1170.85 91.112 1167.78 82.04 1167.78 71C1167.78 59.96 1170.85 50.888 1177 43.784C1183.14 36.584 1191.06 32.984 1200.76 32.984C1209.01 32.984 1215.44 35.816 1220.05 41.48ZM1197.88 80.648C1200.37 83.24 1203.49 84.536 1207.24 84.536C1211.08 84.536 1214.15 83.24 1216.45 80.648C1218.85 78.056 1220.05 74.84 1220.05 71C1220.05 67.16 1218.85 63.944 1216.45 61.352C1214.15 58.76 1211.08 57.464 1207.24 57.464C1203.49 57.464 1200.37 58.76 1197.88 61.352C1195.57 63.944 1194.42 67.16 1194.42 71C1194.42 74.84 1195.57 78.056 1197.88 80.648ZM1284.92 107H1258.28V1.88H1284.92V107ZM39.04 249.016C28 249.016 18.832 245.416 11.536 238.216C4.24 230.92 0.592 221.848 0.592 211C0.592 200.152 4.24 191.128 11.536 183.928C18.832 176.632 28 172.984 39.04 172.984C46.144 172.984 52.624 174.712 58.48 178.168C64.432 181.528 68.992 186.088 72.16 191.848L49.696 204.664C47.296 200.632 43.744 198.616 39.04 198.616C35.68 198.616 32.848 199.816 30.544 202.216C28.336 204.52 27.232 207.448 27.232 211C27.232 214.552 28.336 217.528 30.544 219.928C32.848 222.232 35.68 223.384 39.04 223.384C44.032 223.384 47.584 221.32 49.696 217.192L72.16 230.152C68.992 236.008 64.432 240.616 58.48 243.976C52.624 247.336 46.144 249.016 39.04 249.016ZM112.875 249.016C102.123 249.016 92.9549 245.368 85.3709 238.072C77.8829 230.776 74.1389 221.752 74.1389 211C74.1389 200.248 77.8829 191.224 85.3709 183.928C92.7629 176.632 101.931 172.984 112.875 172.984C123.819 172.984 132.987 176.632 140.379 183.928C147.867 191.32 151.611 200.344 151.611 211C151.611 221.752 147.867 230.776 140.379 238.072C132.987 245.368 123.819 249.016 112.875 249.016ZM104.091 220.216C106.395 222.52 109.323 223.672 112.875 223.672C116.427 223.672 119.307 222.52 121.515 220.216C123.819 217.72 124.971 214.648 124.971 211C124.971 207.256 123.819 204.232 121.515 201.928C119.403 199.528 116.523 198.328 112.875 198.328C109.323 198.328 106.395 199.528 104.091 201.928C101.883 204.328 100.779 207.352 100.779 211C100.779 214.648 101.883 217.72 104.091 220.216ZM244.954 172.984C253.402 172.984 259.93 175.624 264.538 180.904C269.242 186.088 271.594 193.528 271.594 203.224V247H244.954V206.824C244.954 201.352 242.506 198.616 237.61 198.616C231.946 198.616 229.114 202.168 229.114 209.272V247H202.474V206.824C202.474 201.352 200.026 198.616 195.13 198.616C189.466 198.616 186.634 202.168 186.634 209.272V247H159.994V175H186.634V181.768C191.338 175.912 197.866 172.984 206.218 172.984C214.474 172.984 220.474 175.96 224.218 181.912C229.402 175.96 236.314 172.984 244.954 172.984ZM328.274 172.984C337.97 172.984 345.89 176.584 352.034 183.784C358.178 190.888 361.25 199.96 361.25 211C361.25 222.04 358.178 231.112 352.034 238.216C345.89 245.416 337.97 249.016 328.274 249.016C320.018 249.016 313.586 246.184 308.978 240.52V275.8H282.338V175H308.978V181.48C313.586 175.816 320.018 172.984 328.274 172.984ZM312.434 220.648C314.834 223.24 317.954 224.536 321.794 224.536C325.634 224.536 328.706 223.24 331.01 220.648C333.41 218.056 334.61 214.84 334.61 211C334.61 207.16 333.41 203.944 331.01 201.352C328.706 198.76 325.634 197.464 321.794 197.464C317.954 197.464 314.834 198.76 312.434 201.352C310.13 203.944 308.978 207.16 308.978 211C308.978 214.84 310.13 218.056 312.434 220.648ZM405.234 249.016C394.482 249.016 385.314 245.368 377.73 238.072C370.242 230.776 366.498 221.752 366.498 211C366.498 200.248 370.242 191.224 377.73 183.928C385.122 176.632 394.29 172.984 405.234 172.984C416.178 172.984 425.346 176.632 432.738 183.928C440.226 191.32 443.97 200.344 443.97 211C443.97 221.752 440.226 230.776 432.738 238.072C425.346 245.368 416.178 249.016 405.234 249.016ZM396.45 220.216C398.754 222.52 401.682 223.672 405.234 223.672C408.786 223.672 411.666 222.52 413.874 220.216C416.178 217.72 417.33 214.648 417.33 211C417.33 207.256 416.178 204.232 413.874 201.928C411.762 199.528 408.882 198.328 405.234 198.328C401.682 198.328 398.754 199.528 396.45 201.928C394.242 204.328 393.138 207.352 393.138 211C393.138 214.648 394.242 217.72 396.45 220.216ZM476.02 196.168C476.02 197.512 477.22 198.52 479.62 199.192C482.116 199.864 485.14 200.536 488.692 201.208C492.244 201.88 495.796 202.888 499.348 204.232C502.9 205.48 505.876 207.784 508.276 211.144C510.772 214.504 512.02 218.824 512.02 224.104C512.02 228.616 511.012 232.648 508.996 236.2C506.98 239.656 504.244 242.248 500.788 243.976C494.164 247.336 487.108 249.016 479.62 249.016C462.244 249.016 451.012 243.304 445.924 231.88L469.108 221.512C471.028 226.408 474.436 228.856 479.332 228.856C482.596 228.856 484.228 227.8 484.228 225.688C484.228 224.632 483.268 223.72 481.348 222.952C479.428 222.184 476.308 221.32 471.988 220.36C456.916 217 449.428 209.464 449.524 197.752C449.524 189.88 452.5 183.784 458.452 179.464C464.5 175.144 471.46 172.984 479.332 172.984C495.172 172.984 505.588 179.08 510.58 191.272L488.548 199.192C486.82 195.16 484.132 193.144 480.484 193.144C477.508 193.144 476.02 194.152 476.02 196.168ZM543.61 165.208C540.73 168.088 537.322 169.528 533.386 169.528C529.45 169.528 525.946 168.088 522.874 165.208C519.994 162.136 518.554 158.68 518.554 154.84C518.554 150.904 519.994 147.496 522.874 144.616C525.85 141.64 529.354 140.152 533.386 140.152C537.322 140.152 540.73 141.64 543.61 144.616C546.586 147.496 548.074 150.904 548.074 154.84C548.074 158.776 546.586 162.232 543.61 165.208ZM546.634 247H519.994V175H546.634V247ZM605.624 175V200.344H590.504V215.896C590.504 218.296 591.08 220.072 592.232 221.224C593.384 222.376 595.064 223.048 597.272 223.24C599.576 223.336 602.36 223.288 605.624 223.096V247C590.648 249.112 579.944 247.864 573.512 243.256C567.08 238.552 563.864 229.912 563.864 217.336V200.344H553.784V175H563.864V162.76L590.504 154.84V175H605.624ZM638.673 165.208C635.793 168.088 632.385 169.528 628.449 169.528C624.513 169.528 621.009 168.088 617.937 165.208C615.057 162.136 613.617 158.68 613.617 154.84C613.617 150.904 615.057 147.496 617.937 144.616C620.913 141.64 624.417 140.152 628.449 140.152C632.385 140.152 635.793 141.64 638.673 144.616C641.649 147.496 643.137 150.904 643.137 154.84C643.137 158.776 641.649 162.232 638.673 165.208ZM641.697 247H615.057V175H641.697V247ZM688.453 249.016C677.701 249.016 668.533 245.368 660.949 238.072C653.461 230.776 649.717 221.752 649.717 211C649.717 200.248 653.461 191.224 660.949 183.928C668.341 176.632 677.509 172.984 688.453 172.984C699.397 172.984 708.565 176.632 715.957 183.928C723.445 191.32 727.189 200.344 727.189 211C727.189 221.752 723.445 230.776 715.957 238.072C708.565 245.368 699.397 249.016 688.453 249.016ZM679.669 220.216C681.973 222.52 684.901 223.672 688.453 223.672C692.005 223.672 694.885 222.52 697.093 220.216C699.397 217.72 700.549 214.648 700.549 211C700.549 207.256 699.397 204.232 697.093 201.928C694.981 199.528 692.101 198.328 688.453 198.328C684.901 198.328 681.973 199.528 679.669 201.928C677.461 204.328 676.357 207.352 676.357 211C676.357 214.648 677.461 217.72 679.669 220.216ZM781.509 172.984C789.573 172.984 795.909 175.768 800.517 181.336C805.221 186.904 807.573 194.92 807.573 205.384V247H780.933V208.264C780.933 201.832 777.957 198.616 772.005 198.616C768.837 198.616 766.389 199.624 764.661 201.64C763.029 203.656 762.213 206.44 762.213 209.992V247H735.573V175H762.213V182.056C766.725 176.008 773.157 172.984 781.509 172.984Z" fill="#353F63" fill-opacity="0.05"/>
</svg>
