<svg width="803" height="273" viewBox="0 0 803 273" fill="none" xmlns="http://www.w3.org/2000/svg">
<path d="M91.896 91.184C81.624 101.264 69 106.304 54.024 106.304C39.048 106.304 26.376 101.264 16.008 91.184C5.736 80.912 0.6 68.384 0.6 53.6C0.6 38.72 5.736 26.24 16.008 16.16C26.28 5.984 38.952 0.895997 54.024 0.895997C69.096 0.895997 81.72 5.984 91.896 16.16C102.264 26.24 107.448 38.72 107.448 53.6C107.448 68.384 102.264 80.912 91.896 91.184ZM36.312 71.168C41.016 75.776 46.92 78.08 54.024 78.08C61.128 78.08 66.984 75.776 71.592 71.168C76.296 66.464 78.648 60.608 78.648 53.6C78.648 46.592 76.296 40.784 71.592 36.176C66.984 31.472 61.128 29.12 54.024 29.12C46.92 29.12 41.016 31.472 36.312 36.176C31.704 40.784 29.4 46.592 29.4 53.6C29.4 60.512 31.704 66.368 36.312 71.168ZM162.15 69.008V32H188.79V104H162.15V96.944C157.734 102.992 151.302 106.016 142.854 106.016C134.79 106.016 128.406 103.232 123.702 97.664C119.094 92.096 116.79 84.08 116.79 73.616V32H143.43V70.736C143.43 77.168 146.406 80.384 152.358 80.384C155.526 80.384 157.926 79.376 159.558 77.36C161.286 75.344 162.15 72.56 162.15 69.008ZM226.978 32V45.968C228.322 41.168 230.914 37.424 234.754 34.736C238.69 31.952 243.298 30.56 248.578 30.56V59.36C242.818 58.592 237.778 59.744 233.458 62.816C229.138 65.888 226.978 70.688 226.978 77.216V104H200.338V32H226.978ZM331.212 29.984C340.908 29.984 348.828 33.584 354.972 40.784C361.116 47.888 364.188 56.96 364.188 68C364.188 79.04 361.116 88.112 354.972 95.216C348.828 102.416 340.908 106.016 331.212 106.016C322.956 106.016 316.524 103.184 311.916 97.52V132.8H285.276V32H311.916V38.48C316.524 32.816 322.956 29.984 331.212 29.984ZM315.372 77.648C317.772 80.24 320.892 81.536 324.732 81.536C328.572 81.536 331.644 80.24 333.948 77.648C336.348 75.056 337.548 71.84 337.548 68C337.548 64.16 336.348 60.944 333.948 58.352C331.644 55.76 328.572 54.464 324.732 54.464C320.892 54.464 317.772 55.76 315.372 58.352C313.068 60.944 311.916 64.16 311.916 68C311.916 71.84 313.068 75.056 315.372 77.648ZM399.244 32V45.968C400.588 41.168 403.18 37.424 407.02 34.736C410.956 31.952 415.564 30.56 420.844 30.56V59.36C415.084 58.592 410.044 59.744 405.724 62.816C401.404 65.888 399.244 70.688 399.244 77.216V104H372.604V32H399.244ZM462.875 106.016C452.123 106.016 442.955 102.368 435.371 95.072C427.883 87.776 424.139 78.752 424.139 68C424.139 57.248 427.883 48.224 435.371 40.928C442.763 33.632 451.931 29.984 462.875 29.984C473.819 29.984 482.987 33.632 490.379 40.928C497.867 48.32 501.611 57.344 501.611 68C501.611 78.752 497.867 87.776 490.379 95.072C482.987 102.368 473.819 106.016 462.875 106.016ZM454.091 77.216C456.395 79.52 459.323 80.672 462.875 80.672C466.427 80.672 469.307 79.52 471.515 77.216C473.819 74.72 474.971 71.648 474.971 68C474.971 64.256 473.819 61.232 471.515 58.928C469.403 56.528 466.523 55.328 462.875 55.328C459.323 55.328 456.395 56.528 454.091 58.928C451.883 61.328 450.779 64.352 450.779 68C450.779 71.648 451.883 74.72 454.091 77.216ZM559.098 38.48V3.19999H585.738V104H559.098V97.52C554.49 103.184 548.058 106.016 539.802 106.016C530.106 106.016 522.186 102.416 516.042 95.216C509.898 88.112 506.826 79.04 506.826 68C506.826 56.96 509.898 47.888 516.042 40.784C522.186 33.584 530.106 29.984 539.802 29.984C548.058 29.984 554.49 32.816 559.098 38.48ZM536.922 77.648C539.418 80.24 542.538 81.536 546.282 81.536C550.122 81.536 553.194 80.24 555.498 77.648C557.898 75.056 559.098 71.84 559.098 68C559.098 64.16 557.898 60.944 555.498 58.352C553.194 55.76 550.122 54.464 546.282 54.464C542.538 54.464 539.418 55.76 536.922 58.352C534.618 60.944 533.466 64.16 533.466 68C533.466 71.84 534.618 75.056 536.922 77.648ZM641.963 69.008V32H668.603V104H641.963V96.944C637.547 102.992 631.115 106.016 622.667 106.016C614.603 106.016 608.219 103.232 603.515 97.664C598.907 92.096 596.603 84.08 596.603 73.616V32H623.243V70.736C623.243 77.168 626.219 80.384 632.171 80.384C635.339 80.384 637.739 79.376 639.371 77.36C641.099 75.344 641.963 72.56 641.963 69.008ZM715.149 106.016C704.109 106.016 694.941 102.416 687.645 95.216C680.349 87.92 676.701 78.848 676.701 68C676.701 57.152 680.349 48.128 687.645 40.928C694.941 33.632 704.109 29.984 715.149 29.984C722.253 29.984 728.733 31.712 734.589 35.168C740.541 38.528 745.101 43.088 748.269 48.848L725.805 61.664C723.405 57.632 719.853 55.616 715.149 55.616C711.789 55.616 708.957 56.816 706.653 59.216C704.445 61.52 703.341 64.448 703.341 68C703.341 71.552 704.445 74.528 706.653 76.928C708.957 79.232 711.789 80.384 715.149 80.384C720.141 80.384 723.693 78.32 725.805 74.192L748.269 87.152C745.101 93.008 740.541 97.616 734.589 100.976C728.733 104.336 722.253 106.016 715.149 106.016ZM802.343 32V57.344H787.223V72.896C787.223 75.296 787.799 77.072 788.951 78.224C790.103 79.376 791.783 80.048 793.991 80.24C796.295 80.336 799.079 80.288 802.343 80.096V104C787.367 106.112 776.663 104.864 770.23 100.256C763.799 95.552 760.583 86.912 760.583 74.336V57.344H750.503V32H760.583V19.76L787.223 11.84V32H802.343ZM48.696 169.984C58.392 169.984 66.312 173.584 72.456 180.784C78.6 187.888 81.672 196.96 81.672 208C81.672 219.04 78.6 228.112 72.456 235.216C66.312 242.416 58.392 246.016 48.696 246.016C40.44 246.016 34.008 243.184 29.4 237.52V272.8H2.76V172H29.4V178.48C34.008 172.816 40.44 169.984 48.696 169.984ZM32.856 217.648C35.256 220.24 38.376 221.536 42.216 221.536C46.056 221.536 49.128 220.24 51.432 217.648C53.832 215.056 55.032 211.84 55.032 208C55.032 204.16 53.832 200.944 51.432 198.352C49.128 195.76 46.056 194.464 42.216 194.464C38.376 194.464 35.256 195.76 32.856 198.352C30.552 200.944 29.4 204.16 29.4 208C29.4 211.84 30.552 215.056 32.856 217.648ZM125.656 246.016C114.904 246.016 105.736 242.368 98.1521 235.072C90.6641 227.776 86.9201 218.752 86.9201 208C86.9201 197.248 90.6641 188.224 98.1521 180.928C105.544 173.632 114.712 169.984 125.656 169.984C136.6 169.984 145.768 173.632 153.16 180.928C160.648 188.32 164.392 197.344 164.392 208C164.392 218.752 160.648 227.776 153.16 235.072C145.768 242.368 136.6 246.016 125.656 246.016ZM116.872 217.216C119.176 219.52 122.104 220.672 125.656 220.672C129.208 220.672 132.088 219.52 134.296 217.216C136.6 214.72 137.752 211.648 137.752 208C137.752 204.256 136.6 201.232 134.296 198.928C132.184 196.528 129.304 195.328 125.656 195.328C122.104 195.328 119.176 196.528 116.872 198.928C114.664 201.328 113.56 204.352 113.56 208C113.56 211.648 114.664 214.72 116.872 217.216ZM199.416 172V185.968C200.76 181.168 203.352 177.424 207.192 174.736C211.128 171.952 215.736 170.56 221.016 170.56V199.36C215.256 198.592 210.216 199.744 205.896 202.816C201.576 205.888 199.416 210.688 199.416 217.216V244H172.776V172H199.416ZM277.811 172V197.344H262.691V212.896C262.691 215.296 263.267 217.072 264.419 218.224C265.571 219.376 267.251 220.048 269.459 220.24C271.763 220.336 274.547 220.288 277.811 220.096V244C262.835 246.112 252.131 244.864 245.699 240.256C239.267 235.552 236.051 226.912 236.051 214.336V197.344H225.971V172H236.051V159.76L262.691 151.84V172H277.811ZM327.598 140.896V164.8C324.238 164.512 321.55 165.04 319.534 166.384C317.518 167.728 316.51 169.6 316.51 172H327.598V197.344H316.51V244H289.87V197.344H281.518V172H289.87C289.87 161.536 293.086 153.568 299.518 148.096C306.046 142.624 315.406 140.224 327.598 140.896ZM368.234 246.016C357.482 246.016 348.314 242.368 340.73 235.072C333.242 227.776 329.498 218.752 329.498 208C329.498 197.248 333.242 188.224 340.73 180.928C348.122 173.632 357.29 169.984 368.234 169.984C379.178 169.984 388.346 173.632 395.738 180.928C403.226 188.32 406.97 197.344 406.97 208C406.97 218.752 403.226 227.776 395.738 235.072C388.346 242.368 379.178 246.016 368.234 246.016ZM359.45 217.216C361.754 219.52 364.682 220.672 368.234 220.672C371.786 220.672 374.666 219.52 376.874 217.216C379.178 214.72 380.33 211.648 380.33 208C380.33 204.256 379.178 201.232 376.874 198.928C374.762 196.528 371.882 195.328 368.234 195.328C364.682 195.328 361.754 196.528 359.45 198.928C357.242 201.328 356.138 204.352 356.138 208C356.138 211.648 357.242 214.72 359.45 217.216ZM441.994 244H415.354V138.88H441.994V244ZM477.079 162.208C474.199 165.088 470.791 166.528 466.855 166.528C462.919 166.528 459.415 165.088 456.343 162.208C453.463 159.136 452.023 155.68 452.023 151.84C452.023 147.904 453.463 144.496 456.343 141.616C459.319 138.64 462.823 137.152 466.855 137.152C470.791 137.152 474.199 138.64 477.079 141.616C480.055 144.496 481.543 147.904 481.543 151.84C481.543 155.776 480.055 159.232 477.079 162.208ZM480.103 244H453.463V172H480.103V244ZM526.859 246.016C516.107 246.016 506.939 242.368 499.355 235.072C491.867 227.776 488.123 218.752 488.123 208C488.123 197.248 491.867 188.224 499.355 180.928C506.747 173.632 515.915 169.984 526.859 169.984C537.803 169.984 546.971 173.632 554.363 180.928C561.851 188.32 565.595 197.344 565.595 208C565.595 218.752 561.851 227.776 554.363 235.072C546.971 242.368 537.803 246.016 526.859 246.016ZM518.075 217.216C520.379 219.52 523.307 220.672 526.859 220.672C530.411 220.672 533.291 219.52 535.499 217.216C537.803 214.72 538.955 211.648 538.955 208C538.955 204.256 537.803 201.232 535.499 198.928C533.387 196.528 530.507 195.328 526.859 195.328C523.307 195.328 520.379 196.528 518.075 198.928C515.867 201.328 514.763 204.352 514.763 208C514.763 211.648 515.867 214.72 518.075 217.216Z" fill="#353F63" fill-opacity="0.05"/>
</svg>
