<svg width="538" height="110" viewBox="0 0 538 110" fill="none" xmlns="http://www.w3.org/2000/svg">
<path d="M83 106.856H52.184L36.2 75.176H29V106.856H0.2V6.05599H40.52C51.464 6.05599 60.584 9.32 67.88 15.848C75.08 22.28 78.68 30.824 78.68 41.48C78.68 47.432 77.288 52.808 74.504 57.608C71.816 62.408 68.024 66.296 63.128 69.272L83 106.856ZM39.944 32.552H29V51.272H39.944C43.016 51.368 45.416 50.6 47.144 48.968C48.968 47.336 49.88 45.032 49.88 42.056C49.88 39.08 48.968 36.776 47.144 35.144C45.416 33.416 43.016 32.552 39.944 32.552ZM156.672 80.072H108.864C111.168 84.872 116.064 87.272 123.552 87.272C127.872 87.272 131.952 85.736 135.792 82.664L153.216 97.352C146.016 105.128 135.84 109.016 122.688 109.016C110.496 109.016 100.608 105.464 93.0238 98.36C85.6318 91.16 81.9358 82.136 81.9358 71.288C81.9358 60.344 85.5358 51.224 92.7358 43.928C100.032 36.632 109.2 32.984 120.24 32.984C131.184 32.984 140.16 36.584 147.168 43.784C154.272 50.888 157.824 59.864 157.824 70.712C157.824 73.688 157.44 76.808 156.672 80.072ZM108.432 62.936H132.624C131.088 57.176 127.2 54.296 120.96 54.296C114.72 54.296 110.544 57.176 108.432 62.936ZM198.149 71L209.669 35H239.189L211.829 107H184.469L157.109 35H186.629L198.149 71ZM268.61 25.208C265.73 28.088 262.322 29.528 258.386 29.528C254.45 29.528 250.946 28.088 247.874 25.208C244.994 22.136 243.554 18.68 243.554 14.84C243.554 10.904 244.994 7.49599 247.874 4.616C250.85 1.63999 254.354 0.151994 258.386 0.151994C262.322 0.151994 265.73 1.63999 268.61 4.616C271.586 7.49599 273.074 10.904 273.074 14.84C273.074 18.776 271.586 22.232 268.61 25.208ZM271.634 107H244.994V35H271.634V107ZM354.391 80.072H306.583C308.887 84.872 313.783 87.272 321.271 87.272C325.591 87.272 329.671 85.736 333.511 82.664L350.935 97.352C343.735 105.128 333.559 109.016 320.407 109.016C308.215 109.016 298.327 105.464 290.743 98.36C283.351 91.16 279.655 82.136 279.655 71.288C279.655 60.344 283.255 51.224 290.455 43.928C297.751 36.632 306.919 32.984 317.959 32.984C328.903 32.984 337.879 36.584 344.887 43.784C351.991 50.888 355.543 59.864 355.543 70.712C355.543 73.688 355.159 76.808 354.391 80.072ZM306.151 62.936H330.343C328.807 57.176 324.919 54.296 318.679 54.296C312.439 54.296 308.263 57.176 306.151 62.936ZM435.036 74.888L443.388 35H471.468L450.588 107H423.516L414.588 73.16L405.66 107H378.588L357.708 35H385.788L394.14 74.888L404.508 35H424.668L435.036 74.888ZM501.536 56.168C501.536 57.512 502.736 58.52 505.136 59.192C507.632 59.864 510.656 60.536 514.208 61.208C517.76 61.88 521.312 62.888 524.864 64.232C528.416 65.48 531.392 67.784 533.792 71.144C536.288 74.504 537.536 78.824 537.536 84.104C537.536 88.616 536.528 92.648 534.512 96.2C532.496 99.656 529.76 102.248 526.304 103.976C519.68 107.336 512.624 109.016 505.136 109.016C487.76 109.016 476.528 103.304 471.44 91.88L494.624 81.512C496.544 86.408 499.952 88.856 504.848 88.856C508.112 88.856 509.744 87.8 509.744 85.688C509.744 84.632 508.784 83.72 506.864 82.952C504.944 82.184 501.824 81.32 497.504 80.36C482.432 77 474.944 69.464 475.04 57.752C475.04 49.88 478.016 43.784 483.968 39.464C490.016 35.144 496.976 32.984 504.848 32.984C520.688 32.984 531.104 39.08 536.096 51.272L514.064 59.192C512.336 55.16 509.648 53.144 506 53.144C503.024 53.144 501.536 54.152 501.536 56.168Z" fill="#353F63" fill-opacity="0.05"/>
</svg>
